<svg width="200" height="200" viewBox="0 0 400 400" fill="none" xmlns="http://www.w3.org/2000/svg">
<path d="M200 400C310.457 400 400 310.457 400 200C400 89.5431 310.457 0 200 0C89.5431 0 0 89.5431 0 200C0 310.457 89.5431 400 200 400Z" fill="#EDF7FE"/>
<path d="M254.78 180.39C253.98 180.39 253.18 180.45 252.39 180.54C250.36 180.83 251.06 182.09 251.51 182.67C252.41 183.83 253.33 184.97 254.28 186.1C254.97 186.93 255.59 187.83 256.06 188.8C258.51 193.86 261.49 202.65 259.8 213.22C258.9 218.86 256.73 224.34 253.52 229.2C252.46 230.69 251.98 230.73 252.22 231.47L252.28 231.66C254.29 238.54 257.86 256.55 247.7 275.12C246.68 276.98 245.6 278.71 244.46 280.33C244.32 280.52 244.18 280.71 244.05 280.89C243.56 281.44 243.62 282.04 244.9 282.81C244.95 282.84 245.01 282.87 245.06 282.9C248.14 284.44 251.41 285.27 254.8 285.27C272.87 285.27 287.58 261.74 287.58 232.83C287.58 203.92 272.88 180.39 254.8 180.39H254.78Z" fill="#2196F3"/>
<path d="M246.28 281.19C247.38 279.59 248.44 277.91 249.44 276.09C259.73 257.27 256.42 239.02 254.32 231.58C258.17 226.19 260.74 219.97 261.77 213.55C263.53 202.56 260.48 193.43 257.94 188.1C257.39 186.96 256.71 185.9 255.91 184.92C255.91 184.92 254.08 182.47 252.4 180.54C248.47 175.4 244.95 169.94 241.89 164.24L241.74 163.96C235.01 151.32 231.91 136.88 232.79 122.22L234.43 94.76C235.05 84.35 229.23 74.7 219.94 70.74C219.57 70.58 219.2 70.43 218.82 70.29C207.26 66.01 193.22 70.69 184.67 81.67C179.82 87.97 173.62 98.4 171.58 112.36C168.83 131.23 174.27 147.82 178 155.63C169.09 150.67 158.11 147.73 146.24 147.73C116.59 147.73 92.46 166.02 92.46 188.51C92.46 200.54 99.37 211.36 110.33 218.83C107.71 223.12 106.24 227.86 106.24 232.84C106.24 245.22 115.26 256.11 128.83 262.37C126.92 265.79 125.86 269.51 125.86 273.42C125.86 289.89 144.58 303.29 167.58 303.29C178.64 303.29 188.7 300.19 196.18 295.14C198.16 295.79 200.18 296.3 202.23 296.67C204.81 297.13 207.44 297.36 210.09 297.36C214.93 297.36 219.82 296.59 224.56 295.06C229.7 293.02 237.47 290.36 244.9 282.84C245.48 282.29 246.05 281.55 246.3 281.2L246.28 281.19Z" fill="#F5F5F5"/>
<path fill-rule="evenodd" clip-rule="evenodd" d="M216.17 156.33C222.268 156.33 221.753 149.556 221.048 140.273C220.509 133.193 219.86 124.655 221.95 116.55C229.51 87.22 221.1 79.44 210.34 79.44C199.58 79.44 187.74 96.1 186.34 114.88C184.17 144.1 205.42 156.32 216.17 156.32V156.33ZM157.39 209.89C176.228 209.89 191.5 199.145 191.5 185.89C191.5 172.635 176.228 161.89 157.39 161.89C138.551 161.89 123.28 172.635 123.28 185.89C123.28 199.145 138.551 209.89 157.39 209.89ZM191.08 234.94C191.08 228.48 187.42 222.73 181.72 219.02C172.24 225.36 159.82 229.22 146.22 229.22C145.18 229.22 144.16 229.19 143.14 229.15C142.48 230.99 142.12 232.93 142.12 234.95C142.12 246.13 153.08 255.2 166.6 255.2C180.12 255.2 191.08 246.13 191.08 234.95V234.94ZM164.17 267.31C171.5 266.36 178.25 264.22 184.06 261.21H184.07C192.53 262.86 198.84 269.12 198.84 276.61C198.84 285.35 190.26 292.44 179.67 292.44C169.08 292.44 160.5 285.35 160.5 276.61C160.5 273.13 161.87 269.92 164.17 267.31ZM220.22 160.66C231.95 160.66 239.56 173.77 245.34 184.72L245.5 185C249.25 192.09 257.11 217.32 251.27 214.66C251.206 214.631 251.063 214.555 250.853 214.443C247.692 212.757 229.303 202.95 234.16 222.36C234.758 224.756 235.68 227.521 236.689 230.549C242.044 246.616 249.863 270.077 224.83 284.97C220.15 287.76 204.37 291.36 200.65 291.48C206.05 286.45 207.9 283.63 207.9 276.8C207.9 276.502 207.928 276.094 207.962 275.593C208.245 271.399 208.968 260.694 197.65 253.7C197.253 253.44 196.84 253.285 196.491 253.154C195.7 252.857 195.244 252.686 196.07 251.7C202.28 244.3 205.83 235.48 202.44 225.37C199.116 215.476 195.105 213.311 193.041 212.197C191.715 211.481 191.192 211.199 192.17 209.58C196.49 202.46 200.68 192.89 199.99 188.62V188.43C199.99 185.55 199.58 182.74 198.83 180.03V179.77C198.83 168.59 208.49 160.66 220.22 160.66Z" fill="white"/>
<path d="M94.4399 188.5C94.4399 167.12 117.67 149.72 146.22 149.72C174.77 149.72 198 167.12 198 188.5C198 195.79 195.3 202.61 190.61 208.44C190.2 208.95 189.77 209.45 189.33 209.95C180.04 220.39 164.19 227.28 146.22 227.28C133.61 227.28 122.04 223.88 113.05 218.25C112.49 217.9 111.94 217.54 111.39 217.17C100.98 210.07 94.4399 199.85 94.4399 188.5V188.5ZM108.22 232.83C108.22 228.25 109.55 223.88 111.96 219.9C121.27 225.75 133.21 229.27 146.22 229.27C164.82 229.27 181.24 222.07 190.9 211.15C198.08 216.96 202.44 224.54 202.44 232.82C202.44 239.46 199.64 245.64 194.84 250.82C194.39 251.31 193.91 251.79 193.43 252.27C184.86 260.54 170.98 265.93 155.34 265.93C146.73 265.93 138.65 264.29 131.7 261.44C131.08 261.18 130.46 260.92 129.85 260.64C116.85 254.74 108.23 244.48 108.23 232.82L108.22 232.83ZM127.84 273.4C127.84 269.78 128.84 266.33 130.63 263.16C137.89 266.19 146.33 267.94 155.33 267.94C171.69 267.94 186.2 262.19 195.13 253.37C202.61 258.44 207.28 265.55 207.28 273.41C207.28 288.78 189.46 301.28 167.56 301.28C145.66 301.28 127.84 288.78 127.84 273.41V273.4ZM254.77 182.38C271.74 182.38 285.55 205.01 285.55 232.82C285.55 260.63 271.74 283.26 254.77 283.26C251.83 283.26 248.99 282.56 246.29 281.3C246.3 281.29 246.31 281.28 246.32 281.26C246.3 281.25 246.28 281.2 246.26 281.17C247.36 279.57 248.42 277.89 249.42 276.07C259.71 257.25 256.4 239 254.3 231.56C258.15 226.17 260.72 219.95 261.75 213.53C263.51 202.54 260.46 193.41 257.92 188.08C257.37 186.94 255.04 183.43 253.82 182.43M254.77 180.37C253.97 180.37 253.17 180.43 252.38 180.52C248.45 175.38 244.93 169.92 241.87 164.22L241.72 163.94C234.99 151.3 231.89 136.86 232.77 122.2L234.41 94.74C235.03 84.33 229.21 74.68 219.92 70.72C219.55 70.56 219.18 70.41 218.8 70.27C207.24 65.99 193.2 70.67 184.65 81.65C179.8 87.95 173.6 98.38 171.56 112.34C168.81 131.21 174.25 147.8 177.98 155.61C169.07 150.65 158.09 147.71 146.22 147.71C116.57 147.71 92.4399 166 92.4399 188.49C92.4399 200.52 99.3499 211.34 110.31 218.81C107.69 223.1 106.22 227.84 106.22 232.82C106.22 245.2 115.24 256.1 128.81 262.35C126.9 265.77 125.84 269.49 125.84 273.4C125.84 289.87 144.56 303.27 167.56 303.27C178.62 303.27 188.68 300.17 196.16 295.12C198.14 295.77 200.16 296.28 202.21 296.65C204.79 297.11 207.42 297.34 210.07 297.34C214.91 297.34 219.8 296.57 224.54 295.04C229.68 293 237.45 290.34 244.88 282.82C244.93 282.85 244.99 282.88 245.04 282.91C248.12 284.45 251.39 285.28 254.78 285.28C272.85 285.28 287.56 261.75 287.56 232.84C287.56 203.93 272.86 180.4 254.78 180.4L254.77 180.37ZM223.85 293.14C216.9 295.39 209.54 295.91 202.56 294.66C201.09 294.4 199.64 294.04 198.21 293.62C205.08 288.29 209.28 281.18 209.28 273.38C209.28 264.95 204.37 257.34 196.51 251.9C201.52 246.4 204.44 239.84 204.44 232.8C204.44 223.92 199.8 215.81 192.17 209.62C197.13 203.45 199.99 196.2 199.99 188.46C199.99 176.42 193.07 165.59 182.1 158.12C182.16 158.09 182.21 158.05 182.27 158.02C182.03 157.89 181.8 157.76 181.55 157.64C181.43 157.58 181.32 157.53 181.23 157.48C177.91 151.92 170.45 133.76 173.53 112.61C175.5 99.08 181.52 88.96 186.22 82.86C194.24 72.57 207.34 68.16 218.09 72.14C218.44 72.27 218.79 72.41 219.12 72.55C227.63 76.18 232.97 85.04 232.4 94.61L230.76 122.07C229.86 137.1 233.04 151.9 239.94 164.87L240.1 165.16C243.04 170.64 246.41 175.9 250.15 180.88C250.59 181.47 251.04 182.06 251.49 182.64C252.39 183.8 253.31 184.94 254.26 186.07C254.95 186.9 255.57 187.8 256.04 188.77C258.49 193.83 261.47 202.62 259.78 213.19C258.88 218.83 256.71 224.32 253.5 229.17C252.37 226.32 250.75 223.65 248.74 221.36C246.53 218.84 243.88 216.78 240.89 215.24C240.4 214.99 239.8 215.18 239.54 215.67C239.29 216.16 239.48 216.76 239.97 217.02C242.74 218.44 245.18 220.35 247.23 222.68C249.45 225.2 251.16 228.23 252.19 231.44L252.25 231.63C254.26 238.51 257.83 256.52 247.67 275.09C246.65 276.95 245.57 278.68 244.43 280.3C244.29 280.49 244.15 280.68 244.02 280.86C236.45 289.25 229.1 291.03 223.85 293.12V293.14Z" fill="#004995"/>
</svg>
